<svg xmlns="http://www.w3.org/2000/svg" width="10.277" height="20.5" viewBox="0 0 10.277 20.5">
    <path fill="#afb1bc" d="M25.82 20.4a1.925 1.925 0 0 1-1.042-.594 1.854 1.854 0 0 1-.481-1.27V1.764A1.814 1.814 0 0 1 25.74-.059a.1.1 0 0 0 .08-.041h7.271a.28.28 0 0 0 .12.041 1.816 1.816 0 0 1 1.362 1.8v16.734a1.86 1.86 0 0 1-1.462 1.864c-.02 0-.04.02-.06.041.021.02-7.231.02-7.231.02zm-.92-3.768h9.094V3.648H24.9zm4.547 2.5a.9.9 0 0 0 .9-.9v-.02a.907.907 0 0 0-.941-.881.921.921 0 0 0-.861.881.908.908 0 0 0 .9.922zm0-17.367h-1.123c-.24 0-.381.123-.381.328a.32.32 0 0 0 .32.328h2.3c.24 0 .381-.123.381-.328a.32.32 0 0 0-.32-.328h-1.178z" transform="translate(-24.298 .1)"/>
</svg>
