<svg xmlns="http://www.w3.org/2000/svg" width="23" height="15" viewBox="0 0 23 15">
    <g fill="none">
        <path fill="#DDA50D" d="M14.056 0H.944C.424 0 0 .332 0 .744v15.658c0 .357.276.5.397.546.068.025.173.052.303.052.156 0 .3-.04.426-.12l6.36-2.916h.021c.018.012.036.02.056.028l6.258 2.86c.156.098.323.146.494.146.126 0 .226-.028.288-.05.12-.046.397-.187.397-.546V.744c0-.41-.423-.744-.944-.744z" transform="rotate(90 11.5 11.5)"/>
        <path fill="#F7B500" d="M13.125 1v13.656l-5.574-2.404c-.19-.092-.424-.144-.664-.144-.235 0-.451.047-.61.136L1.143 15 1.125 1.341l12-.341z" transform="rotate(90 11.5 11.5)"/>
        <path fill="#FFDC7A" d="M13 1v.975l-5.574-.171c-.19-.007-.424-.01-.664-.01-.235 0-.451.003-.61.01L1.018 2 1 1.024 13 1z" transform="rotate(90 11.5 11.5)"/>
        <path fill="#FFDC7A" d="M13 11h-1.95l.343-4.645c.013-.158.02-.353.02-.554 0-.195-.007-.375-.02-.507L11 1.015 12.951 1 13 11z" transform="rotate(90 11.5 11.5)"/>
    </g>
</svg>
