<svg width="33" height="17" xmlns="http://www.w3.org/2000/svg"><g fill="#90A9C0" fill-rule="nonzero"><path d="M8.498.007a.762.762 0 0 0-.652.76L7.845 10.91 5.211 8.225a.744.744 0 0 0-1.068 0 .775.775 0 0 0 0 1.083l3.923 4a.746.746 0 0 0 1.068 0l3.923-4a.775.775 0 0 0 0-1.083l-.085-.074a.744.744 0 0 0-.983.074l-2.637 2.687L9.354.767A.76.76 0 0 0 8.6 0l-.102.007ZM16.446 14.667H.754a.76.76 0 0 0-.754.766.76.76 0 0 0 .754.767h15.692a.76.76 0 0 0 .754-.767.76.76 0 0 0-.754-.766ZM23.22 6.709a.582.582 0 0 1 0-.912l.707-.607a.835.835 0 0 1 1.06 0L28 7.782l3.013-2.592a.835.835 0 0 1 1.06 0l.707.607a.582.582 0 0 1 0 .912l-4.252 3.657a.83.83 0 0 1-1.056 0L23.22 6.709Z"/></g></svg>