<svg width="10" height="16" xmlns="http://www.w3.org/2000/svg"><path d="M2.648 15.979c.156.083.321-.097.226-.246-.52-.808-1.012-2.168-.228-3.92 1.307-2.921 2.102-4.434 2.102-4.434s.423 1.765 1.57 3.335c1.103 1.511 1.707 3.411.733 4.994-.091.149.07.324.225.245 1.205-.617 2.557-1.853 2.71-4.314.056-.752-.029-1.805-.45-3.134-.543-1.683-1.21-2.47-1.595-2.807a.173.173 0 0 0-.285.142c.112 1.817-.571 2.278-.96 1.239-.156-.415-.246-1.133-.246-2.007 0-1.455-.423-2.954-1.353-4.17a4.723 4.723 0 0 0-.85-.866.172.172 0 0 0-.278.15c.071.986.007 3.813-2.474 7.191-2.25 3.134-1.378 5.54-1.068 6.192.59 1.248 1.416 1.982 2.221 2.41Z" fill="#DD494A" fill-rule="nonzero"/></svg>