<svg width="17" height="17" xmlns="http://www.w3.org/2000/svg"><path d="M16.378 14.839c.344 0 .622.272.622.608a.615.615 0 01-.622.609H.622A.615.615 0 010 15.447c0-.336.278-.608.622-.608h15.756zm-.007-11.035l-9.87 9.656-3.848.385.393-3.764 8.583-8.397 1.288-1.26c.579-.566 1.588-.566 2.167 0l1.287 1.26a1.473 1.473 0 010 2.12zM4.046 12.482l1.888-.188 7.83-7.66-1.695-1.659-7.83 7.66-.193 1.847zM14 1.202a.29.29 0 00-.204.083l-.848.83 1.696 1.658.847-.83a.278.278 0 000-.398l-1.287-1.26A.29.29 0 0014 1.203z" fill="#BEC8D2"/></svg>