<svg width="19" height="19" xmlns="http://www.w3.org/2000/svg"><path d="M12.77.7a.675.675 0 0 1 .664.564l.009.106v2.956a.668.668 0 0 1-.568.661l-.106.009-5.174-.001v.588c0 .058.012.114.034.167l.041.075.055.067a.45.45 0 0 0 .23.121l.088.009h2.615c.426 0 .834.167 1.136.465.264.262.427.605.464.97l.008.158-.001.291h5.361c.107 0 .211.026.305.073l.09.054.08.068c.102.1.168.23.19.37l.009.105v2.957a.667.667 0 0 1-.568.66l-.106.01-2.372-.001v3.359c0 .317-.095.625-.27.885l-.094.126-.107.117c-.264.26-.61.421-.977.457l-.159.008h-.391v.476a.666.666 0 0 1-.074.305l-.055.09-.07.08a.675.675 0 0 1-.369.187l-.106.008H1.374a.676.676 0 0 1-.666-.564L.7 17.63v-2.956a.67.67 0 0 1 .574-.662l.1-.008h11.208a.676.676 0 0 1 .666.564l.008.106v1.141h.391a.265.265 0 0 0 .09-.015l.041-.02.055-.04a.252.252 0 0 0 .066-.114l.009-.065-.001-3.359h-7.49a.677.677 0 0 1-.304-.072l-.09-.055-.08-.068a.668.668 0 0 1-.19-.369l-.01-.105V8.576a.67.67 0 0 1 .575-.662l.1-.007 4.5-.001v-.29a.249.249 0 0 0-.015-.087l-.019-.04-.04-.052a.262.262 0 0 0-.118-.067l-.068-.01H8.043c-.475 0-.931-.186-1.268-.519a1.771 1.771 0 0 1-.518-1.082l-.009-.176v-.588H1.561a.677.677 0 0 1-.305-.072l-.09-.054-.08-.068a.668.668 0 0 1-.19-.37l-.01-.105V1.37c0-.337.25-.615.575-.663l.1-.007h11.208Zm-.862 14.643H2.047v1.617h9.861v-1.617Zm5.044-6.098H7.091v1.618h9.861V9.245Zm-4.857-7.206H2.234v1.617h9.861V2.039Z" fill="#1C2243" fill-rule="nonzero"/></svg>