<svg xmlns="http://www.w3.org/2000/svg" width="17" height="17" viewBox="0 0 17 17">
    <g fill="#979AAF">
        <path d="M11.536 4.857H4.655c-.344 0-.607.176-.607.405 0 .23.263.405.607.405h6.88c.345 0 .608-.176.608-.405 0-.23-.263-.405-.607-.405zM11.536 7.286H4.655c-.344 0-.607.175-.607.404 0 .23.263.405.607.405h6.88c.345 0 .608-.175.608-.405 0-.229-.263-.404-.607-.404zM11.536 8.905H4.655c-.344 0-.607.175-.607.405 0 .229.263.404.607.404h6.88c.345 0 .608-.175.608-.404 0-.23-.263-.405-.607-.405z"/>
        <path d="M9.669 0H7.331C3.289 0 0 3.278 0 7.305v8.096c0 .474.258.671.416.73.1.04.178.06.277.06.337 0 .615-.257.952-.573.435-.395 1.11-1.007 1.723-1.007H9.67c4.042 0 7.331-3.278 7.331-7.306C17 3.278 13.711 0 9.669 0zm0 13.426h-6.3c-.872 0-1.625.533-2.18 1.027V7.305c0-3.376 2.754-6.12 6.142-6.12h2.338c3.388 0 6.142 2.744 6.142 6.12 0 3.377-2.754 6.121-6.142 6.121z"/>
    </g>
</svg>
