<?xml version="1.0" encoding="UTF-8"?>
<svg width="34px" height="33px" viewBox="0 0 34 33" version="1.1" xmlns="http://www.w3.org/2000/svg" xmlns:xlink="http://www.w3.org/1999/xlink">
    <title>tag</title>
    <g id="Page-1" stroke="none" stroke-width="1" fill="none" fill-rule="evenodd">
        <g id="managevulns_tags_modal" transform="translate(-959.000000, -231.000000)" fill="#1C2243" fill-rule="nonzero">
            <g id="Group-14" transform="translate(405.000000, 186.000000)">
                <g id="tag" transform="translate(554.000000, 45.000000)">
                    <path d="M33.1185185,5.92592593 L33.1185185,2.52592593 C33.1185185,2.4 33.1185185,2.27407407 33.1185185,2.14814815 C32.9925926,0.888888889 32.1111111,0.00740740741 30.8518519,0.00740740741 C28.4592593,0.00740740741 26.0666667,0.00740740741 23.6740741,0.00740740741 C21.6592593,0.00740740741 19.7703704,0.00740740741 17.7555556,0.00740740741 C17.7555556,0.00740740741 17.7555556,0.00740740741 17.7555556,0.00740740741 C17.1259259,0.00740740741 16.4962963,0.259259259 16.1185185,0.762962963 C15.6148148,1.39259259 14.9851852,1.8962963 14.4814815,2.52592593 L9.57037037,7.05925926 C7.17777778,9.45185185 4.78518519,11.8444444 2.39259259,14.237037 C0.503703704,16.1259259 0.503703704,18.7703704 2.39259259,20.7851852 C4.28148148,22.6740741 6.17037037,24.562963 8.05925926,26.4518519 L12.2148148,30.6074074 C12.9703704,31.362963 13.7259259,31.7407407 14.6074074,31.9925926 L16.3703704,32.1185185 L16.4962963,32.1185185 C17.3777778,31.8666667 18.2592593,31.362963 19.0148148,30.6074074 C23.4222222,26.2 27.8296296,21.7925926 32.362963,17.2592593 C33.1185185,16.5037037 33.3703704,15.7481481 33.3703704,14.7407407 C33.1185185,11.8444444 33.1185185,8.82222222 33.1185185,5.92592593 Z M29.9703704,2.52592593 C30.2222222,2.52592593 30.3481481,2.77777778 30.4740741,3.02962963 C30.4740741,3.15555556 30.4740741,3.28148148 30.4740741,3.40740741 L30.4740741,6.3037037 C30.4740741,8.82222222 30.4740741,11.3407407 30.4740741,13.8592593 C30.4740741,14.4888889 30.2222222,15.1185185 29.8444444,15.6222222 L29.8444444,15.6222222 C29.7185185,15.7481481 29.5925926,15.8740741 29.4666667,16 L20.0222222,25.4444444 C20.0222222,25.4444444 19.8962963,25.5703704 19.8962963,25.5703704 L7.55555556,13.1037037 C7.55555556,13.1037037 7.55555556,12.9777778 7.68148148,12.9777778 C10.8296296,9.82962963 13.9777778,6.68148148 17.1259259,3.53333333 C17.3777778,3.28148148 17.6296296,3.15555556 17.7555556,2.9037037 C18.1333333,2.52592593 18.5111111,2.4 19.1407407,2.4 C19.1407407,2.4 19.1407407,2.4 19.1407407,2.4 C21.6592593,2.4 24.1777778,2.4 26.6962963,2.4 L29.5925926,2.4 C29.7185185,2.52592593 29.8444444,2.52592593 29.9703704,2.52592593 Z M4.02962963,16.6296296 C4.40740741,16.2518519 4.78518519,15.8740741 5.03703704,15.4962963 C5.03703704,15.4962963 5.16296296,15.3703704 5.16296296,15.3703704 L17.6296296,27.7111111 C17.5037037,27.837037 17.5037037,27.837037 17.3777778,27.962963 C17,28.3407407 16.7481481,28.7185185 16.3703704,28.9703704 C15.8666667,29.4740741 14.9851852,29.4740741 14.3555556,28.9703704 C14.2296296,28.8444444 14.1037037,28.7185185 13.9777778,28.5925926 L4.40740741,19.0222222 C4.28148148,18.8962963 4.15555556,18.7703704 4.02962963,18.6444444 C3.52592593,18.0148148 3.52592593,17.1333333 4.02962963,16.6296296 Z" id="Shape"></path>
                    <path d="M23.5481481,5.42222222 C22.5407407,5.42222222 21.4074074,5.8 20.6518519,6.55555556 C19.8962963,7.31111111 19.3925926,8.31851852 19.3925926,9.45185185 C19.3925926,11.7185185 21.1555556,13.4814815 23.4222222,13.6074074 C23.4222222,13.6074074 23.4222222,13.6074074 23.4222222,13.6074074 C24.5555556,13.6074074 25.562963,13.2296296 26.3185185,12.4740741 C27.0740741,11.7185185 27.5777778,10.7111111 27.5777778,9.57777778 C27.5777778,7.31111111 25.8148148,5.42222222 23.5481481,5.42222222 Z M23.4222222,10.962963 C23.4222222,10.962963 23.4222222,10.962963 23.4222222,10.962963 C22.5407407,10.962963 21.9111111,10.3333333 21.9111111,9.57777778 C21.9111111,9.2 22.037037,8.82222222 22.2888889,8.57037037 C22.5407407,8.31851852 22.9185185,8.19259259 23.2962963,8.19259259 C23.2962963,8.19259259 23.2962963,8.19259259 23.2962963,8.19259259 C24.0518519,8.19259259 24.8074074,8.82222222 24.8074074,9.7037037 C24.9333333,10.3333333 24.3037037,10.962963 23.4222222,10.962963 Z" id="Shape"></path>
                </g>
            </g>
        </g>
    </g>
</svg>