<?xml version="1.0" encoding="UTF-8" standalone="no"?>
<!DOCTYPE svg PUBLIC "-//W3C//DTD SVG 1.1//EN" "http://www.w3.org/Graphics/SVG/1.1/DTD/svg11.dtd">
<svg width="100%" height="100%" viewBox="0 0 1855 1855" version="1.1" xmlns="http://www.w3.org/2000/svg" xmlns:xlink="http://www.w3.org/1999/xlink" xml:space="preserve" xmlns:serif="http://www.serif.com/" style="fill-rule:evenodd;clip-rule:evenodd;stroke-linecap:round;stroke-linejoin:round;">
    <g transform="matrix(4.16667,0,0,4.16667,0,0)">
        <g transform="matrix(1,0,0,1,-268.95,-79.009)">
            <g transform="matrix(1,0,0,1,2.25348,4.82913)">
                <g transform="matrix(0.841922,0,0,0.978533,42.5542,1.64607)">
                    <path d="M619.87,514.36C509.33,544.89 385.54,515.6 317.44,442.81C249.34,370.01 253.72,271.66 328.15,202.52L530.5,328L619.87,514.36Z" style="fill:rgb(255,85,85);fill-opacity:0.5;fill-rule:nonzero;"/>
                </g>
                <g transform="matrix(0.841922,0,0,0.978533,42.5542,1.64607)">
                    <path d="M619.87,514.36C509.33,544.89 385.54,515.6 317.44,442.81C249.34,370.01 253.72,271.66 328.15,202.52L530.5,328L619.87,514.36Z" style="fill:none;fill-rule:nonzero;stroke:rgb(128,128,128);stroke-opacity:0.5;stroke-width:0.5px;"/>
                </g>
                <g transform="matrix(0.841922,0,0,0.978533,42.5542,1.64607)">
                    <path d="M530,328L530,275L619,461L619,514L530,328Z" style="fill:rgb(192,192,192);fill-opacity:0.5;fill-rule:nonzero;"/>
                </g>
                <g transform="matrix(0.841922,0,0,0.978533,42.5542,1.64607)">
                    <path d="M530,328L530,275L619,461L619,514L530,328Z" style="fill:none;fill-rule:nonzero;stroke:rgb(128,128,128);stroke-opacity:0.5;stroke-width:0.5px;"/>
                </g>
                <g transform="matrix(0.841922,0,0,0.978533,42.5542,1.64607)">
                    <path d="M328.15,202.52C361.64,171.42 406.78,148.76 457.6,137.56L530.5,328L328.15,202.52Z" style="fill:rgb(85,85,255);fill-opacity:0.5;fill-rule:nonzero;"/>
                </g>
                <g transform="matrix(0.841922,0,0,0.978533,42.5542,1.64607)">
                    <path d="M328.15,202.52C361.64,171.42 406.78,148.76 457.6,137.56L530.5,328L328.15,202.52Z" style="fill:none;fill-rule:nonzero;stroke:rgb(128,128,128);stroke-opacity:0.5;stroke-width:0.5px;"/>
                </g>
                <g transform="matrix(0.841922,0,0,0.978533,42.5542,1.64607)">
                    <path d="M530,328L530,275L328,149L328,202L530,328Z" style="fill:rgb(192,192,192);fill-opacity:0.5;fill-rule:nonzero;"/>
                </g>
                <g transform="matrix(0.841922,0,0,0.978533,42.5542,1.64607)">
                    <path d="M530,328L530,275L328,149L328,202L530,328Z" style="fill:none;fill-rule:nonzero;stroke:rgb(128,128,128);stroke-opacity:0.5;stroke-width:0.5px;"/>
                </g>
                <g transform="matrix(0.841922,0,0,0.978533,42.5542,1.64607)">
                    <path d="M457.6,137.56C547.97,117.63 645.48,136.13 712.87,185.97L530.5,328L457.6,137.56Z" style="fill:rgb(85,255,85);fill-opacity:0.5;fill-rule:nonzero;"/>
                </g>
                <g transform="matrix(0.841922,0,0,0.978533,42.5542,1.64607)">
                    <path d="M457.6,137.56C547.97,117.63 645.48,136.13 712.87,185.97L530.5,328L457.6,137.56Z" style="fill:none;fill-rule:nonzero;stroke:rgb(128,128,128);stroke-opacity:0.5;stroke-width:0.5px;"/>
                </g>
                <g transform="matrix(0.841922,0,0,0.978533,42.5542,1.64607)">
                    <path d="M530,328L530,275L457,84L457,137L530,328Z" style="fill:rgb(192,192,192);fill-opacity:0.5;fill-rule:nonzero;"/>
                </g>
                <g transform="matrix(0.841922,0,0,0.978533,42.5542,1.64607)">
                    <path d="M530,328L530,275L457,84L457,137L530,328Z" style="fill:none;fill-rule:nonzero;stroke:rgb(128,128,128);stroke-opacity:0.5;stroke-width:0.5px;"/>
                </g>
                <g transform="matrix(0.841922,0,0,0.978533,42.5542,1.64607)">
                    <path d="M712.87,185.97C775.25,232.11 803.24,298.8 787.51,363.81C771.78,428.83 714.41,483.62 634.51,509.93L530.5,328L712.87,185.97Z" style="fill:rgb(255,255,85);fill-opacity:0.5;fill-rule:nonzero;"/>
                </g>
                <g transform="matrix(0.841922,0,0,0.978533,42.5542,1.64607)">
                    <path d="M712.87,185.97C775.25,232.11 803.24,298.8 787.51,363.81C771.78,428.83 714.41,483.62 634.51,509.93L530.5,328L712.87,185.97Z" style="fill:none;fill-rule:nonzero;stroke:rgb(128,128,128);stroke-opacity:0.5;stroke-width:0.5px;"/>
                </g>
                <g transform="matrix(0.841922,0,0,0.978533,42.5542,1.64607)">
                    <path d="M530,328L530,275L712,132L712,185L530,328Z" style="fill:rgb(192,192,192);fill-opacity:0.5;fill-rule:nonzero;"/>
                </g>
                <g transform="matrix(0.841922,0,0,0.978533,42.5542,1.64607)">
                    <path d="M530,328L530,275L712,132L712,185L530,328Z" style="fill:none;fill-rule:nonzero;stroke:rgb(128,128,128);stroke-opacity:0.5;stroke-width:0.5px;"/>
                </g>
                <g transform="matrix(0.841922,0,0,0.978533,42.5542,1.64607)">
                    <path d="M634.51,509.93C629.69,511.52 624.81,512.99 619.87,514.36L530.5,328L634.51,509.93Z" style="fill:rgb(255,85,255);fill-opacity:0.5;fill-rule:nonzero;"/>
                </g>
                <g transform="matrix(0.841922,0,0,0.978533,42.5542,1.64607)">
                    <path d="M634.51,509.93C629.69,511.52 624.81,512.99 619.87,514.36L530.5,328L634.51,509.93Z" style="fill:none;fill-rule:nonzero;stroke:rgb(128,128,128);stroke-opacity:0.5;stroke-width:0.5px;"/>
                </g>
                <g transform="matrix(0.841922,0,0,0.978533,42.5542,1.64607)">
                    <path d="M530,328L530,275L634,456L634,509L530,328Z" style="fill:rgb(192,192,192);fill-opacity:0.5;fill-rule:nonzero;"/>
                </g>
                <g transform="matrix(0.841922,0,0,0.978533,42.5542,1.64607)">
                    <path d="M530,328L530,275L634,456L634,509L530,328Z" style="fill:none;fill-rule:nonzero;stroke:rgb(128,128,128);stroke-opacity:0.5;stroke-width:0.5px;"/>
                </g>
                <g transform="matrix(0.841922,0,0,0.978533,42.5542,1.64607)">
                    <path d="M530.5,76.68C386.19,76.68 269.2,165.47 269.2,275L269.2,328C269.2,218.47 386.19,129.68 530.5,129.68C674.81,129.68 791.8,218.47 791.8,328L791.8,275C791.8,165.47 674.81,76.68 530.5,76.68Z" style="fill:rgb(128,128,128);fill-opacity:0.5;fill-rule:nonzero;"/>
                </g>
                <g transform="matrix(0.841922,0,0,0.978533,42.5542,1.64607)">
                    <path d="M269.2,275L269.2,328C269.2,437.53 386.19,526.32 530.5,526.32C674.81,526.32 791.8,437.53 791.8,328L791.8,275C791.8,384.53 674.81,473.32 530.5,473.32C386.19,473.32 269.2,384.53 269.2,275Z" style="fill:rgb(128,128,128);fill-opacity:0.5;fill-rule:nonzero;"/>
                </g>
                <g transform="matrix(0.841922,0,0,0.978533,42.5542,1.64607)">
                    <path d="M328.15,149.51C291.3,183.7 269.2,227.39 269.2,275L269.2,328C269.2,280.39 291.3,236.7 328.15,202.51L328.15,149.51Z" style="fill:rgb(255,85,85);fill-opacity:0.5;fill-rule:nonzero;"/>
                </g>
                <g transform="matrix(0.841922,0,0,0.978533,42.5542,1.64607)">
                    <path d="M328.15,149.51C291.3,183.7 269.2,227.39 269.2,275L269.2,328C269.2,280.39 291.3,236.7 328.15,202.51L328.15,149.51Z" style="fill:none;fill-rule:nonzero;stroke:rgb(128,128,128);stroke-opacity:0.5;stroke-width:0.5px;"/>
                </g>
                <g transform="matrix(0.841922,0,0,0.978533,42.5542,1.64607)">
                    <path d="M457.6,84.5C406.13,95.83 361.21,118.84 328.15,149.51L328.15,202.51C361.21,171.84 406.13,148.83 457.6,137.5L457.6,84.5Z" style="fill:rgb(85,85,255);fill-opacity:0.5;fill-rule:nonzero;"/>
                </g>
                <g transform="matrix(0.841922,0,0,0.978533,42.5542,1.64607)">
                    <path d="M457.6,84.5C406.13,95.83 361.21,118.84 328.15,149.51L328.15,202.51C361.21,171.84 406.13,148.83 457.6,137.5L457.6,84.5Z" style="fill:none;fill-rule:nonzero;stroke:rgb(128,128,128);stroke-opacity:0.5;stroke-width:0.5px;"/>
                </g>
                <g transform="matrix(0.841922,0,0,0.978533,42.5542,1.64607)">
                    <path d="M530.5,76.68C505.2,76.68 480.74,79.41 457.6,84.5L457.6,137.5C480.74,132.41 505.2,129.68 530.5,129.68C601.45,129.68 665.79,151.14 712.87,185.97L712.87,132.97C665.79,98.14 601.45,76.68 530.5,76.68Z" style="fill:rgb(85,255,85);fill-opacity:0.5;fill-rule:nonzero;"/>
                </g>
                <g transform="matrix(0.841922,0,0,0.978533,42.5542,1.64607)">
                    <path d="M530.5,76.68C505.2,76.68 480.74,79.41 457.6,84.5L457.6,137.5C480.74,132.41 505.2,129.68 530.5,129.68C601.45,129.68 665.79,151.14 712.87,185.97L712.87,132.97C665.79,98.14 601.45,76.68 530.5,76.68Z" style="fill:none;fill-rule:nonzero;stroke:rgb(128,128,128);stroke-opacity:0.5;stroke-width:0.5px;"/>
                </g>
                <g transform="matrix(0.841922,0,0,0.978533,42.5542,1.64607)">
                    <path d="M712.87,132.97L712.87,185.97C761.57,221.99 791.8,272.32 791.8,328L791.8,275C791.8,219.32 761.57,168.99 712.87,132.97Z" style="fill:rgb(255,255,85);fill-opacity:0.5;fill-rule:nonzero;"/>
                </g>
                <g transform="matrix(0.841922,0,0,0.978533,42.5542,1.64607)">
                    <path d="M712.87,132.97L712.87,185.97C761.57,221.99 791.8,272.32 791.8,328L791.8,275C791.8,219.32 761.57,168.99 712.87,132.97Z" style="fill:none;fill-rule:nonzero;stroke:rgb(128,128,128);stroke-opacity:0.5;stroke-width:0.5px;"/>
                </g>
                <g transform="matrix(0.841922,0,0,0.978533,42.5542,1.64607)">
                    <path d="M269.2,275L269.2,328C269.2,437.53 386.19,526.32 530.5,526.32C561.89,526.32 591.99,522.11 619.87,514.41L619.87,461.41C591.99,469.11 561.89,473.32 530.5,473.32C386.19,473.32 269.2,384.53 269.2,275Z" style="fill:rgb(255,85,85);fill-opacity:0.5;fill-rule:nonzero;"/>
                </g>
                <g transform="matrix(0.841922,0,0,0.978533,42.5542,1.64607)">
                    <path d="M269.2,275L269.2,328C269.2,437.53 386.19,526.32 530.5,526.32C561.89,526.32 591.99,522.11 619.87,514.41L619.87,461.41C591.99,469.11 561.89,473.32 530.5,473.32C386.19,473.32 269.2,384.53 269.2,275Z" style="fill:none;fill-rule:nonzero;stroke:rgb(128,128,128);stroke-opacity:0.5;stroke-width:0.5px;"/>
                </g>
                <g transform="matrix(0.841922,0,0,0.978533,42.5542,1.64607)">
                    <path d="M791.8,275C791.8,356.47 727.07,426.47 634.51,456.98L634.51,509.98C727.07,479.47 791.8,409.47 791.8,328L791.8,275Z" style="fill:rgb(255,255,85);fill-opacity:0.5;fill-rule:nonzero;"/>
                </g>
                <g transform="matrix(0.841922,0,0,0.978533,42.5542,1.64607)">
                    <path d="M791.8,275C791.8,356.47 727.07,426.47 634.51,456.98L634.51,509.98C727.07,479.47 791.8,409.47 791.8,328L791.8,275Z" style="fill:none;fill-rule:nonzero;stroke:rgb(128,128,128);stroke-opacity:0.5;stroke-width:0.5px;"/>
                </g>
                <g transform="matrix(0.841922,0,0,0.978533,42.5542,1.64607)">
                    <path d="M634.51,456.98C629.7,458.57 624.82,460.05 619.87,461.41L619.87,514.41C624.82,513.05 629.7,511.57 634.51,509.98L634.51,456.98Z" style="fill:rgb(255,85,255);fill-opacity:0.5;fill-rule:nonzero;"/>
                </g>
                <g transform="matrix(0.841922,0,0,0.978533,42.5542,1.64607)">
                    <path d="M634.51,456.98C629.7,458.57 624.82,460.05 619.87,461.41L619.87,514.41C624.82,513.05 629.7,511.57 634.51,509.98L634.51,456.98Z" style="fill:none;fill-rule:nonzero;stroke:rgb(128,128,128);stroke-opacity:0.5;stroke-width:0.5px;"/>
                </g>
                <g transform="matrix(0.841922,0,0,0.978533,42.5542,1.64607)">
                    <path d="M619.87,461.36C509.33,491.89 385.54,462.6 317.44,389.81C249.34,317.01 253.72,218.66 328.15,149.52L530.5,275L619.87,461.36Z" style="fill:rgb(255,85,85);fill-opacity:0.5;fill-rule:nonzero;"/>
                </g>
                <g transform="matrix(0.841922,0,0,0.978533,42.5542,1.64607)">
                    <path d="M619.87,461.36C509.33,491.89 385.54,462.6 317.44,389.81C249.34,317.01 253.72,218.66 328.15,149.52L530.5,275L619.87,461.36Z" style="fill:none;fill-rule:nonzero;stroke:rgb(128,128,128);stroke-opacity:0.5;stroke-width:0.5px;"/>
                </g>
                <g transform="matrix(0.841922,0,0,0.978533,42.5542,1.64607)">
                    <path d="M328.15,149.52C361.64,118.42 406.78,95.76 457.6,84.56L530.5,275L328.15,149.52Z" style="fill:rgb(85,85,255);fill-opacity:0.5;fill-rule:nonzero;"/>
                </g>
                <g transform="matrix(0.841922,0,0,0.978533,42.5542,1.64607)">
                    <path d="M328.15,149.52C361.64,118.42 406.78,95.76 457.6,84.56L530.5,275L328.15,149.52Z" style="fill:none;fill-rule:nonzero;stroke:rgb(128,128,128);stroke-opacity:0.5;stroke-width:0.5px;"/>
                </g>
                <g transform="matrix(0.841922,0,0,0.978533,42.5542,1.64607)">
                    <path d="M457.6,84.56C547.97,64.63 645.48,83.13 712.87,132.97L530.5,275L457.6,84.56Z" style="fill:rgb(85,255,85);fill-opacity:0.5;fill-rule:nonzero;"/>
                </g>
                <g transform="matrix(0.841922,0,0,0.978533,42.5542,1.64607)">
                    <path d="M457.6,84.56C547.97,64.63 645.48,83.13 712.87,132.97L530.5,275L457.6,84.56Z" style="fill:none;fill-rule:nonzero;stroke:rgb(128,128,128);stroke-opacity:0.5;stroke-width:0.5px;"/>
                </g>
                <g transform="matrix(0.841922,0,0,0.978533,42.5542,1.64607)">
                    <path d="M712.87,132.97C775.25,179.11 803.24,245.8 787.51,310.81C771.78,375.83 714.41,430.62 634.51,456.93L530.5,275L712.87,132.97Z" style="fill:rgb(255,255,85);fill-opacity:0.5;fill-rule:nonzero;"/>
                </g>
                <g transform="matrix(0.841922,0,0,0.978533,42.5542,1.64607)">
                    <path d="M712.87,132.97C775.25,179.11 803.24,245.8 787.51,310.81C771.78,375.83 714.41,430.62 634.51,456.93L530.5,275L712.87,132.97Z" style="fill:none;fill-rule:nonzero;stroke:rgb(128,128,128);stroke-opacity:0.5;stroke-width:0.5px;"/>
                </g>
                <g transform="matrix(0.841922,0,0,0.978533,42.5542,1.64607)">
                    <path d="M634.51,456.93C629.69,458.52 624.81,459.99 619.87,461.36L530.5,275L634.51,456.93Z" style="fill:rgb(255,85,255);fill-opacity:0.5;fill-rule:nonzero;"/>
                </g>
                <g transform="matrix(0.841922,0,0,0.978533,42.5542,1.64607)">
                    <path d="M634.51,456.93C629.69,458.52 624.81,459.99 619.87,461.36L530.5,275L634.51,456.93Z" style="fill:none;fill-rule:nonzero;stroke:rgb(128,128,128);stroke-opacity:0.5;stroke-width:0.5px;"/>
                </g>
            </g>
        </g>
        <g transform="matrix(1,0,0,1,-268.95,-79.009)">
            <g transform="matrix(0.24,-0,-0,0.24,268.95,79.009)">
            </g>
        </g>
        <g transform="matrix(1,0,0,1,-268.95,-79.009)">
            <g transform="matrix(0.24,-0,-0,0.24,268.95,79.009)">
            </g>
        </g>
        <g transform="matrix(1,0,0,1,-268.95,-79.009)">
            <g transform="matrix(0.24,-0,-0,0.24,268.95,79.009)">
            </g>
        </g>
        <g transform="matrix(1,0,0,1,-268.95,-79.009)">
            <g transform="matrix(0.24,-0,-0,0.24,268.95,79.009)">
            </g>
        </g>
        <g transform="matrix(1,0,0,1,-268.95,-79.009)">
            <g transform="matrix(0.24,-0,-0,0.24,268.95,79.009)">
            </g>
        </g>
        <g transform="matrix(1,0,0,1,-268.95,-79.009)">
            <g transform="matrix(0.24,-0,-0,0.24,268.95,79.009)">
            </g>
        </g>
        <g transform="matrix(1,0,0,1,-268.95,-79.009)">
            <g transform="matrix(0.24,-0,-0,0.24,268.95,79.009)">
            </g>
        </g>
        <g transform="matrix(1,0,0,1,-268.95,-79.009)">
            <g transform="matrix(0.24,-0,-0,0.24,268.95,79.009)">
            </g>
        </g>
        <g transform="matrix(1,0,0,1,-268.95,-79.009)">
            <g transform="matrix(0.24,-0,-0,0.24,268.95,79.009)">
            </g>
        </g>
        <g transform="matrix(1,0,0,1,-268.95,-79.009)">
            <g transform="matrix(0.24,-0,-0,0.24,268.95,79.009)">
            </g>
        </g>
        <g transform="matrix(1,0,0,1,-268.95,-79.009)">
            <g transform="matrix(0.24,-0,-0,0.24,268.95,79.009)">
            </g>
        </g>
        <g transform="matrix(1,0,0,1,-268.95,-79.009)">
            <g transform="matrix(0.24,-0,-0,0.24,268.95,79.009)">
            </g>
        </g>
        <g transform="matrix(1,0,0,1,-268.95,-79.009)">
            <g transform="matrix(0.24,-0,-0,0.24,268.95,79.009)">
            </g>
        </g>
        <g transform="matrix(1,0,0,1,-268.95,-79.009)">
            <g transform="matrix(0.24,-0,-0,0.24,268.95,79.009)">
            </g>
        </g>
        <g transform="matrix(1,0,0,1,-268.95,-79.009)">
            <g transform="matrix(0.24,-0,-0,0.24,268.95,79.009)">
            </g>
        </g>
        <g transform="matrix(1,0,0,1,-268.95,-79.009)">
            <g transform="matrix(0.24,-0,-0,0.24,268.95,79.009)">
            </g>
        </g>
        <g transform="matrix(1,0,0,1,-268.95,-79.009)">
            <g transform="matrix(0.24,-0,-0,0.24,268.95,79.009)">
            </g>
        </g>
        <g transform="matrix(1,0,0,1,-268.95,-79.009)">
            <g transform="matrix(0.24,-0,-0,0.24,268.95,79.009)">
            </g>
        </g>
        <g transform="matrix(1,0,0,1,-268.95,-79.009)">
            <g transform="matrix(0.24,-0,-0,0.24,268.95,79.009)">
            </g>
        </g>
        <g transform="matrix(1,0,0,1,-268.95,-79.009)">
            <g transform="matrix(0.24,-0,-0,0.24,268.95,79.009)">
            </g>
        </g>
        <g transform="matrix(1,0,0,1,-268.95,-79.009)">
            <g transform="matrix(0.24,-0,-0,0.24,268.95,79.009)">
            </g>
        </g>
        <g transform="matrix(1,0,0,1,-268.95,-79.009)">
            <g transform="matrix(0.24,-0,-0,0.24,268.95,79.009)">
            </g>
        </g>
        <g transform="matrix(1,0,0,1,-268.95,-79.009)">
            <g transform="matrix(0.24,-0,-0,0.24,268.95,79.009)">
            </g>
        </g>
        <g transform="matrix(1,0,0,1,-268.95,-79.009)">
            <g transform="matrix(0.24,-0,-0,0.24,268.95,79.009)">
            </g>
        </g>
        <g transform="matrix(1,0,0,1,-268.95,-79.009)">
            <g transform="matrix(0.24,-0,-0,0.24,268.95,79.009)">
            </g>
        </g>
        <g transform="matrix(1,0,0,1,-268.95,-79.009)">
            <g transform="matrix(0.24,-0,-0,0.24,268.95,79.009)">
            </g>
        </g>
        <g transform="matrix(1,0,0,1,-268.95,-79.009)">
            <g transform="matrix(0.24,-0,-0,0.24,268.95,79.009)">
            </g>
        </g>
        <g transform="matrix(1,0,0,1,-268.95,-79.009)">
            <g transform="matrix(0.24,-0,-0,0.24,268.95,79.009)">
            </g>
        </g>
        <g transform="matrix(1,0,0,1,-268.95,-79.009)">
            <g transform="matrix(0.24,-0,-0,0.24,268.95,79.009)">
            </g>
        </g>
        <g transform="matrix(1,0,0,1,-268.95,-79.009)">
            <g transform="matrix(0.24,-0,-0,0.24,268.95,79.009)">
            </g>
        </g>
        <g transform="matrix(1,0,0,1,-268.95,-79.009)">
            <g transform="matrix(0.24,-0,-0,0.24,268.95,79.009)">
            </g>
        </g>
        <g transform="matrix(1,0,0,1,-268.95,-79.009)">
            <g transform="matrix(0.24,-0,-0,0.24,268.95,79.009)">
            </g>
        </g>
        <g transform="matrix(1,0,0,1,-268.95,-79.009)">
            <g transform="matrix(0.24,-0,-0,0.24,268.95,79.009)">
            </g>
        </g>
        <g transform="matrix(1,0,0,1,-268.95,-79.009)">
            <g transform="matrix(0.24,-0,-0,0.24,268.95,79.009)">
            </g>
        </g>
        <g transform="matrix(1,0,0,1,-268.95,-79.009)">
            <g transform="matrix(0.24,-0,-0,0.24,268.95,79.009)">
            </g>
        </g>
        <g transform="matrix(1,0,0,1,-268.95,-79.009)">
            <g transform="matrix(0.24,-0,-0,0.24,268.95,79.009)">
            </g>
        </g>
        <g transform="matrix(1,0,0,1,-268.95,-79.009)">
            <g transform="matrix(0.24,-0,-0,0.24,268.95,79.009)">
            </g>
        </g>
        <g transform="matrix(1,0,0,1,-268.95,-79.009)">
            <g transform="matrix(0.24,-0,-0,0.24,268.95,79.009)">
            </g>
        </g>
        <g transform="matrix(1,0,0,1,-268.95,-79.009)">
            <g transform="matrix(0.24,-0,-0,0.24,268.95,79.009)">
            </g>
        </g>
        <g transform="matrix(1,0,0,1,-268.95,-79.009)">
            <g transform="matrix(0.24,-0,-0,0.24,268.95,79.009)">
            </g>
        </g>
        <g transform="matrix(1,0,0,1,-268.95,-79.009)">
            <g transform="matrix(0.24,-0,-0,0.24,268.95,79.009)">
            </g>
        </g>
        <g transform="matrix(1,0,0,1,-268.95,-79.009)">
            <g transform="matrix(0.24,-0,-0,0.24,268.95,79.009)">
            </g>
        </g>
        <g transform="matrix(1,0,0,1,-268.95,-79.009)">
            <g transform="matrix(0.24,-0,-0,0.24,268.95,79.009)">
            </g>
        </g>
        <g transform="matrix(1,0,0,1,-268.95,-79.009)">
            <g transform="matrix(0.24,-0,-0,0.24,268.95,79.009)">
            </g>
        </g>
    </g>
</svg>
