<svg width="34" height="41" xmlns="http://www.w3.org/2000/svg">
  <path d="M18.908626 1.00738a.667964.667964 0 00-.06206.020136H3.661538C2.201862 1.027516 1 2.18948 1 3.62568v31.4621c0 1.43698 1.201862 2.598165 2.661539 2.598165h1.320437v.365432C4.981976 39.117468 5.878883 40 6.962632 40h24.077311C32.123692 40 33 39.117469 33 38.051377v-8.62675c0-1.066222-.876308-1.948623-1.960057-1.948623h-1.753672V10.892356a.639235.639235 0 000-.202917.639104.639104 0 000-.04092.640984.640984 0 00-.020467-.081193.643573.643573 0 00-.041594-.101459.655042.655042 0 00-.020467-.020135.6453.6453 0 00-.020466-.040922.655054.655054 0 00-.06206-.061056.645414.645414 0 00-.020468-.040272.671137.671137 0 00-.020466 0 .639348.639348 0 000-.020136L19.46585 1.189771a.654794.654794 0 00-.040933-.04092c-.143822-.116924-.331209-.168529-.51583-.142056l-.000461.000585zM3.661737 2.326793h14.689862v6.47508c0 1.436525 1.181461 2.618495 2.640874 2.618495h6.973559v16.05583H6.96283c-1.083749 0-1.980656.882402-1.980656 1.948624v6.962236H3.661737c-.745387 0-1.341102-.563802-1.341102-1.299083v-31.4621c0-.733527.595715-1.299082 1.341102-1.299082h0zm16.0103.893119l7.283068 6.860713.040934.04092h-6.00383c-.745716 0-1.320437-.58517-1.320437-1.319412V3.220172l.000264-.00026zm-15.081835 9.68219c-.235873.032627-.436136.186577-.525352.40386-.089216.217282-.053831.464886.092826.64954.146658.184656.382306.278309.61818.245681h20.817482c.238099.003313.459566-.11976.579598-.32209.120032-.20233.120032-.452572 0-.654902s-.3415-.325403-.579598-.32209H4.775856a.671077.671077 0 00-.123791 0 .674005.674005 0 00-.06206 0h.000197zm.123725 3.816072c-.36459.016908-.646234.321369-.629098.680066.017136.358697.326563.635826.691159.619017H25.59347c.238099.003312.459566-.11976.579598-.32209.120032-.20233.120032-.452572 0-.654903-.120032-.20233-.341499-.325402-.579598-.32209H4.775988a.67112.67112 0 00-.06206 0zm-.06206 3.83632c-.235874.021755-.442032.16566-.540819.377507-.098786.211846-.075191.45945.061896.64954.137087.190092.36684.29379.602714.272035H25.59314c.238099.003313.459566-.11976.579598-.32209.120032-.20233.120032-.452572 0-.654902s-.3415-.325403-.579598-.32209H4.775658a.67112.67112 0 00-.06206 0 .671821.671821 0 00-.062061 0h.00033zm0 3.836384c-.235874.021756-.442032.16566-.540819.377507-.098786.211847-.075191.45945.061896.649541s.36684.29379.602714.272035h11.203116c.238098.003312.459566-.11976.579598-.32209.120032-.20233.120032-.452572 0-.654903-.120032-.20233-.3415-.325402-.579598-.32209H4.775658a.67112.67112 0 00-.06206 0 .671751.671751 0 00-.062061 0h.00033zm2.310765 4.384403h24.077311c.37507 0 .63962.280536.63962.64954v8.62675c0 .36894-.264616.649542-.63962.649542H6.962632c-.37507 0-.660219-.280602-.660219-.649541v-8.62675c0-.369005.285148-.649541.660219-.649541zm6.519658 2.415448c-.710858 0-1.276203.230327-1.71241.690202-.436272.45981-.660218 1.09727-.660218 1.928293 0 .78562.205658 1.41444.639554 1.86743.43383.452926.99726.669872 1.671211.669872.544548 0 .986763-.121204 1.341036-.385697.354273-.264558.611032-.67299.763345-1.21789l-.990328-.32477c-.085366.365561-.237085.641616-.433236.811926-.196216.170245-.429142.263844-.701482.263844-.369194 0-.656389-.138028-.887135-.405963-.230879-.267871-.350774-.72872-.350774-1.359945 0-.59485.116462-1.013089.350774-1.278751.234245-.265663.531542-.405963.9078-.405963.27234 0 .51101.073398.701416.223247.190473.14985.311293.350103.37144.608945l1.010926-.223313c-.11534-.399532-.285016-.72021-.515763-.93365-.38768-.361015-.885353-.527817-1.506156-.527817h0zm4.704057 0c-.389991 0-.714489.046767-.990328.162385-.275773.115878-.493051.286123-.639554.507487-.146568.221363-.226983.456173-.226983.710403 0 .395116.163008.740152.474565 1.014973.22157.195187.606015.35309 1.155383.487156.426963.10438.705179.182326.825273.223247.175288.061057.300927.140366.371307.223247.070577.082946.103192.166153.103192.28424 0 .183884-.100948.349777-.268247.487155-.1673.137313-.412703.202917-.742746.202917-.311557 0-.559205-.068852-.742746-.223248-.183474-.154395-.290628-.40148-.350708-.730733l-1.010926.101523c.06688.558475.27498.986978.618888 1.278751.343908.291774.843892.426294 1.485492.426294.440762 0 .798138-.061057 1.09352-.182716.295448-.121464.539927-.298204.701482-.548017.161556-.249749.226983-.525934.226983-.811927 0-.315677-.07137-.577117-.206384-.79166-.134949-.214609-.31816-.38375-.557026-.507422-.238867-.123802-.594923-.249554-1.09352-.365432-.498465-.115813-.819728-.21805-.948998-.32477-.101476-.08405-.144456-.186354-.144456-.30444 0-.129389.056779-.227275.165055-.30444.168487-.1201.38319-.182651.680817-.182716.288515.000065.516027.050015.660218.162385.144258.11237.245338.291514.288912.548018l1.010927-.040271c-.015846-.458706-.173242-.82141-.495164-1.096166-.321923-.274756-.80725-.405963-1.444228-.405963v-.00026zm2.434555.081193l1.815601 4.993412h1.093454l1.815601-4.993412h-1.072855l-1.258508 3.69433-1.279174-3.69433h-1.114119zM9.31466 35.311288v.954046h.96973v-.954046h-.96973z" fill="#1C2243" fill-rule="nonzero" stroke="#1C2243" stroke-width=".5"/>
</svg>
