<svg width="19" height="19" viewBox="0 0 19 19" xmlns="http://www.w3.org/2000/svg">
    <path d="M17.056 1c.215 0 .482.051.684.254.203.202.26.475.26.69v9.823c0 .215-.057.482-.26.684-.202.203-.47.26-.684.26H12.05c-.1.002-.025-3.465 0-5.78-2.712-.046-5.763-.209-5.761-.312V1.944c0-.215.057-.488.26-.69C6.75 1.05 7.018 1 7.233 1h9.823zm-5.29 5.289c.514 0 .945.43.945.944v9.823a.955.955 0 0 1-.944.944H1.944A.955.955 0 0 1 1 17.056V7.233c0-.513.431-.944.944-.944h9.823zm-.188 1.133H2.133v9.445h9.445V7.422z" fill="#90A9C0" fill-rule="nonzero" stroke="#90A9C0" stroke-width=".2"/>
</svg>
