<?xml version="1.0" encoding="utf-8"?>
<!-- Generator: Adobe Illustrator 25.1.0, SVG Export Plug-In . SVG Version: 6.00 Build 0)  -->
<svg version="1.1" id="Layer_1" xmlns="http://www.w3.org/2000/svg" xmlns:xlink="http://www.w3.org/1999/xlink" x="0px" y="0px"
	 viewBox="0 0 18.3 18.3" style="enable-background:new 0 0 18.3 18.3;" xml:space="preserve">
<style type="text/css">
	.st0{fill-rule:evenodd;clip-rule:evenodd;fill:#1C4566;}
</style>
<g id="Symbols">
	<g id="Icon-Send_x2F_icon_x5F_send" transform="translate(-9.000000, -9.000000)">
		<g id="Group-3" transform="translate(9.000000, 9.000000)">
			<path id="Fill-1" class="st0" d="M15.5,3.9L11,15.7L8.4,11L15.5,3.9z M14.4,2.8L7.3,9.9L2.6,7.3L14.4,2.8z M18.1,0.2
				c-0.2-0.2-0.5-0.3-0.8-0.2L0.5,6.4C0.2,6.5,0,6.8,0,7.1c0,0.3,0.2,0.6,0.4,0.7l6.4,3.6l3.6,6.5c0.1,0.2,0.4,0.4,0.7,0.4
				c0,0,0.1,0,0.1,0c0.3,0,0.5-0.2,0.6-0.5L18.2,1C18.4,0.8,18.3,0.4,18.1,0.2L18.1,0.2z"/>
		</g>
	</g>
</g>
</svg>
