<svg xmlns="http://www.w3.org/2000/svg" width="17" height="17" viewBox="0 0 17 17">
    <g fill="#979AAF">
        <path d="M16.994 1.264c0-.087.003-.175-.003-.262-.041-.598-.44-.995-1.042-.997-2.363-.007-4.727 0-7.091-.005-.308 0-.553.11-.761.33-.3.315-.6.632-.908.94C5.032 3.427 2.869 5.58.715 7.74c-.954.956-.953 2.271 0 3.226 1.767 1.773 3.54 3.538 5.31 5.308.324.325.694.563 1.146.663.046.01.087.041.13.063h.747c.466-.173.902-.378 1.265-.743 2.39-2.4 4.789-4.792 7.191-7.178.34-.338.5-.713.496-1.197-.014-2.206-.006-4.412-.006-6.618zm-8.665 14.39c-.389.329-.942.316-1.345.003-.098-.076-.185-.166-.272-.254l-5.1-5.093c-.087-.088-.179-.173-.256-.27-.324-.403-.347-.949-.016-1.345.26-.312.568-.584.823-.841l7 6.977c-.268.268-.532.567-.834.822zm7.226-7.205c-.073.086-.153.164-.232.244l-5.077 5.071c-.078.077-.162.148-.223.203L3.058 6.974c.039-.043.106-.128.182-.205 1.71-1.708 3.42-3.416 5.132-5.122.123-.123.254-.239.388-.35.249-.205.529-.3.86-.298 1.867.01 3.734.005 5.6.006.112 0 .227-.002.335.02.243.052.385.217.41.468.01.099.005.2.005.299 0 1.846-.01 3.691.008 5.537.004.445-.147.799-.423 1.12z"/>
        <path d="M12.025 3c-1.1-.021-2.02.882-2.025 1.992-.006 1.103.87 1.997 1.969 2.008 1.117.011 2.021-.873 2.03-1.985.01-1.089-.876-1.993-1.974-2.015zM12 5.994c-.554.002-1-.431-1.007-.98-.008-.553.458-1.015 1.017-1.008.546.007.993.46.99 1.002-.003.546-.448.985-1 .986z"/>
    </g>
</svg>
