<svg width="16" height="16" xmlns="http://www.w3.org/2000/svg"><g fill="#DD494A" fill-rule="nonzero"><path d="M13.467 12.616V8.214c0-2.85-2.219-5.168-4.946-5.168-2.726 0-4.945 2.319-4.945 5.168v4.402c-.56.198-.963.734-.963 1.362v1.541a.48.48 0 0 0 .48.481H13.95a.48.48 0 0 0 .481-.481v-1.541c0-.628-.403-1.164-.963-1.362ZM8.52 4.008c2.197 0 3.984 1.887 3.984 4.206v4.319H4.538V8.214c0-2.319 1.787-4.206 3.983-4.206Zm4.947 11.03H3.575v-1.06c0-.267.216-.483.482-.483h8.929c.266 0 .482.216.482.483v1.06ZM8.04 0h1v2.153h-1zM4.977 1.613l.678 1.18-.834.48-.678-1.18zM1.54 3.976l1.565 1.063-.54.795L1 4.772zM1.28 8.238h1.05v1H1.28zM14.776 8.239h1.05v1h-1.05zM15.984 4.83l-1.508 1.007-.534-.8L15.45 4.03zM12.913 2.266 12.2 3.305l-.793-.544.711-1.039z"/><path d="M10.1 7.952h1v3.399h-1z"/></g></svg>