<svg width="16" height="13" xmlns="http://www.w3.org/2000/svg"><path d="M14.987 2.16h-9.68c-.568 0-1.013-.431-1.013-.981S4.739.196 5.306.196h9.681C15.554.196 16 .63 16 1.18s-.446.982-1.013.982ZM16 6.287c0-.55-.446-.982-1.013-.982h-9.68c-.568 0-1.013.432-1.013.982s.445.982 1.012.982h9.681c.567 0 1.013-.432 1.013-.982Zm0 5.107c0-.55-.446-.982-1.013-.982h-9.68c-.568 0-1.013.432-1.013.982s.445.982 1.012.982h9.681c.567 0 1.013-.432 1.013-.982ZM2.43 1.179C2.43.51 1.904 0 1.215 0 .567 0 0 .51 0 1.179c0 .628.527 1.178 1.215 1.178.689 0 1.215-.51 1.215-1.178Zm0 5.107c0-.668-.526-1.179-1.215-1.179C.567 5.107 0 5.617 0 6.286c0 .628.527 1.178 1.215 1.178.689 0 1.215-.51 1.215-1.178Zm0 5.107c0-.668-.526-1.179-1.215-1.179-.648 0-1.215.511-1.215 1.179 0 .628.527 1.178 1.215 1.178.689 0 1.215-.51 1.215-1.178Z" fill="#1C2243" fill-rule="nonzero"/></svg>