<svg width="19" height="19" viewBox="0 0 19 19" xmlns="http://www.w3.org/2000/svg">
    <path d="M17.056 1c.215 0 .482.051.684.254.203.202.26.475.26.69v9.823c0 .215-.057.482-.26.684-.202.203-.47.26-.684.26H12.71v4.345a.955.955 0 0 1-.944.944H1.944A.955.955 0 0 1 1 17.056V7.233c0-.513.431-.944.944-.944l4.344-.001V1.944c0-.215.058-.488.26-.69.203-.203.47-.254.685-.254h9.823zm-.19 1.133H7.423v4.155h4.345c.513 0 .944.432.944.945v4.344h4.156V2.134z" fill="#90A9C0" fill-rule="nonzero" stroke="#90A9C0" stroke-width=".2"/>
</svg>
