<svg width="30" height="37" xmlns="http://www.w3.org/2000/svg">
  <path d="M16.6 1.518l-.053.018H3.526c-1.25477-.002226-2.275294 1.010252-2.283 2.265V31.23c.007159 1.254978 1.028005 2.267775 2.283 2.265h1.133v.319c.005461.936612.763387 1.694539 1.7 1.7h20.649c.931456-.010411 1.681-.768486 1.681-1.7v-7.521c0-.931514-.749544-1.689589-1.681-1.7H25.5V10.138a.565997.565997 0 000-.177v-.036a.599998.599998 0 00-.053-.159l-.018-.018c-.005333-.012-.011333-.024-.018-.036a.543993.543993 0 00-.053-.053c-.005-.012-.011-.024-.018-.035h-.018v-.018l-8.246-7.928c-.011-.012-.023-.024-.035-.036-.123205-.101909-.283766-.146953-.442-.124h.001zM3.523 2.667823h12.6V8.313c-.002226 1.25477 1.010252 2.275294 2.265 2.283h5.981v14H6.357c-.936613.005461-1.694539.763388-1.7 1.7v6.070196H3.526c-.303572.005453-.596625-.11141-.813006-.324405-.216382-.212995-.337853-.504167-.336999-.807791V3.801c-.000849-.303712.12059-.594983.336942-.808135.21635-.213153.509397-.330242.813063-.325042h-.003zM17.255 3.447L23.5 9.428l.035.036004H18.39c-.303712.00085-.594983-.12059-.808135-.33694-.213153-.216352-.330242-.509398-.324865-.813064V3.448l-.002-.001zM4.322 11.888c-.208683.020968-.389155.154463-.470286.34787-.08113.193406-.049906.415704.081365.579277.131272.163572.341536.242185.547921.204853h17.855c.312593 0 .566-.253407.566-.566 0-.312593-.253407-.566-.566-.566H4.481a.571004.571004 0 00-.106 0h-.053 0zm.106 3.327c-.207511.002111-.397291.117418-.494777.300618-.097485.183199-.0871.40502.027077.578309.114176.17329.3139.27036.5207.253073h17.856c.31287 0 .5665-.25363.5665-.5665s-.25363-.5665-.5665-.5665H4.481a.429996.429996 0 00-.053.001h0zm-.053 3.344c-.208846.010545-.395079.134795-.485005.323583-.089927.188788-.069055.41169.054357.580501.123412.168811.329475.256327.536648.227916h17.855c.202212 0 .389064-.107879.49017-.283.101107-.175121.101107-.390879 0-.566-.101106-.175121-.287958-.283-.49017-.283H4.375zm0 3.344c-.310472.032052-.53717.30823-.508095.618994.029074.310765.303066.5401.614095.514006h9.609c.31287 0 .5665-.25363.5665-.5665s-.25363-.5665-.5665-.5665H4.375zm1.982 3.823h20.651c.149304-.002369.292948.057079.396913.164263.103966.107185.159006.252574.152087.401737v7.521c.00692.149163-.048121.294552-.152087.401736-.103965.107185-.247609.166632-.396913.164264H6.357c-.15102.003024-.296747-.055636-.403556-.162444-.106808-.106809-.165468-.252537-.162555-.403556v-7.521c-.002913-.15102.055747-.296747.162555-.403555.106809-.106809.252537-.165469.403556-.162445zm5.592 2.106c-.55353-.022627-1.08959.196322-1.469.6-.399788.46558-.60277 1.068429-.566 1.681-.035963.59345.161 1.17752.549 1.628.37199.390903.893741.603535 1.433.584.41011.019664.814987-.09863 1.15-.336.330246-.271409.560703-.645067.655-1.062l-.849-.283a1.323 1.323 0 01-.372.708c-.164069.149215-.37823.23131-.6.23-.294994.007145-.576427-.12377-.761-.354-.23116-.350069-.336907-.768123-.3-1.186-.035666-.395507.070687-.790788.3-1.115.191903-.230874.478873-.361281.779-.354a.94.94 0 01.6.195.909.909 0 01.319.531l.867-.195a1.76 1.76 0 00-.442-.814c-.352461-.318874-.817327-.484383-1.292-.46l-.001.002zm4.035 0a2.155 2.155 0 00-.849.141 1.2 1.2 0 00-.549.443 1.118 1.118 0 00-.195.619c-.001178.34052.14771.664266.407.885a2.39 2.39 0 00.991.425c.366.091.6.159.708.195a.732.732 0 01.318.195.355.355 0 01.089.248c-.008595.169119-.09312.325306-.23.425a.971.971 0 01-.637.177.946.946 0 01-.637-.195 1.05 1.05 0 01-.3-.637l-.867.089c.027923.42589.217944.8249.531 1.115.366143.273111.818423.405174 1.274.372a2.412 2.412 0 00.938-.159 1.267 1.267 0 00.6-.478c.254046-.430398.260896-.963213.018-1.4a1.213 1.213 0 00-.478-.442 4.100004 4.100004 0 00-.938-.319 2.4 2.4 0 01-.814-.283c-.080372-.064182-.126223-.16217-.124-.265-.001343-.106864.052278-.206933.142-.265a.954.954 0 01.584-.159.918.918 0 01.566.141.736.736 0 01.248.478l.867-.035c.004648-.365422-.150598-.714633-.425-.956-.357311-.262506-.79694-.388114-1.239-.354l.001-.001zm2.088.071l1.557 4.353h.938l1.557-4.353H21.2l-1.079 3.221-1.1-3.221h-.949zm-9.7 3.521v.832h.832v-.832h-.832z" fill="#63758D" fill-rule="nonzero" stroke="#63758D" stroke-width=".4"/>
</svg>
