<?xml version="1.0" encoding="UTF-8"?>
<svg width="65px" height="21px" viewBox="0 0 65 21" version="1.1" xmlns="http://www.w3.org/2000/svg" xmlns:xlink="http://www.w3.org/1999/xlink">
    <title>gitlab</title>
    <g id="Page-1" stroke="none" stroke-width="1" fill="none" fill-rule="evenodd">
        <g id="gitlab" transform="translate(0.977385, 0.916373)" fill-rule="nonzero">
            <polygon id="path14_3_" fill="#8C929D" points="44.6566147 4.64262669 43.2966147 4.64262669 43.3026147 14.7816267 48.8126147 14.7816267 48.8126147 13.5276267 44.6636147 13.5276267 44.6576147 4.64262669"></polygon>
            <path d="M54.0556147,13.0026267 C53.6149287,13.460251 53.0059188,13.7172279 52.3706147,13.7136267 C51.3346147,13.7136267 50.9166147,13.2016267 50.9166147,12.5346267 C50.9166147,11.5346267 51.6166147,11.0496267 53.1006147,11.0496267 C53.4223584,11.0509137 53.7435669,11.075982 54.0616147,11.1246267 L54.0616147,13.0026267 L54.0556147,13.0026267 Z M52.6456147,6.85662669 C51.5864424,6.85184375 50.5595273,7.22082499 49.7456147,7.89862669 L50.2256147,8.73462669 C50.8880197,8.31384659 51.655869,8.088865 52.4406147,8.08562669 C52.8714203,8.01762337 53.309309,8.15427754 53.6249711,8.45523494 C53.9406333,8.75619233 54.0980052,9.18706922 54.0506147,9.62062669 L54.0506147,10.1136267 C53.7389799,10.0646989 53.4240654,10.0396261 53.1086147,10.0386267 C50.7256147,10.0386267 49.5146147,10.8746267 49.5146147,12.6216267 C49.4567726,13.2727526 49.6949889,13.9153444 50.1632855,14.3714245 C50.631582,14.8275047 51.2802448,15.048656 51.9296147,14.9736267 C52.8405268,15.0347445 53.7085706,14.5790794 54.1756147,13.7946267 L54.4256147,14.7866267 L55.3866147,14.7866267 L55.3866147,9.59562669 C55.4961374,8.83979928 55.2421431,8.07665692 54.70152,7.53721554 C54.160897,6.99777416 53.3972006,6.74545034 52.6416147,6.85662669 L52.6456147,6.85662669 Z" id="path26_3_" fill="#8C929D"></path>
            <path d="M59.7796147,13.7606267 C59.3357951,13.7798226 58.8928941,13.7055515 58.4796147,13.5426267 L58.4796147,8.85262669 C58.9678525,8.42326172 59.5954387,8.18587349 60.2456147,8.18462669 C61.5626147,8.18462669 62.0676147,9.11462669 62.0676147,10.6176267 C62.0676147,12.7516267 61.2506147,13.7556267 59.7776147,13.7556267 M60.3516147,6.85562669 C59.6374878,6.85116213 58.9557902,7.15341052 58.4796147,7.68562669 L58.4796147,6.37562669 L58.4736147,4.64062669 L57.1466147,4.64062669 L57.1526147,14.5306267 C57.9742656,14.8370167 58.846965,14.9833152 59.7236147,14.9616267 C62.2626147,14.9616267 63.4856147,13.3396267 63.4856147,10.5376267 C63.4796147,8.32262669 62.3496147,6.85662669 60.3536147,6.85662669" id="path30_3_" fill="#8C929D"></path>
            <path d="M29.8476147,5.74262669 C30.7458311,5.7084374 31.6273966,5.99167127 32.3376147,6.54262669 L32.9246147,5.52562669 C32.0838915,4.81328478 31.0123466,4.43180909 29.9106147,4.45262669 C27.0106147,4.45262669 24.9876147,6.21862669 24.9876147,9.78162669 C24.9876147,13.5126267 27.1776147,14.9666451 29.6796147,14.9666451 C30.7148412,14.9688517 31.7405958,14.7694749 32.6996147,14.3796267 L32.6686147,10.3926267 L32.6686147,9.14362669 L28.9556147,9.14362669 L28.9556147,10.3976267 L31.3266147,10.3976267 L31.3576147,13.4236267 C30.8581563,13.6316115 30.3191623,13.7275312 29.7786147,13.7046267 C27.7696147,13.7046267 26.4216147,12.4376267 26.4216147,9.77362669 C26.4156147,7.05962669 27.8066147,5.74262669 29.8466147,5.74262669" id="path34_5_" fill="#8C929D"></path>
            <path d="M39.4266147,4.64162669 L38.0976147,4.64162669 L38.1036147,6.34162669 L38.1036147,12.2256267 C37.9914536,12.9809146 38.2437017,13.7446879 38.7836276,14.2846138 C39.3235535,14.8245397 40.0873268,15.0767878 40.8426147,14.9646267 C41.1166958,14.9652674 41.390231,14.9401571 41.6596147,14.8896267 L41.6596147,13.7016267 C41.4551122,13.732701 41.2484569,13.7474144 41.0416147,13.7456267 C40.6108091,13.81363 40.1729204,13.6769758 39.8572583,13.3760184 C39.5415961,13.0750611 39.3842242,12.6441842 39.4316147,12.2106267 L39.4316147,8.14962669 L41.6596147,8.14962669 L41.6596147,7.04362669 L39.4316147,7.04362669 L39.4256147,4.64362669 L39.4266147,4.64162669 Z" id="path38_4_" fill="#8C929D"></path>
            <polygon id="path40_33_" fill="#8C929D" points="34.7176147 14.7816267 36.0466147 14.7816267 36.0466147 7.04462669 34.7176147 7.04462669"></polygon>
            <polygon id="path42_3_" fill="#8C929D" points="34.7176147 5.97862669 36.0466147 5.97862669 36.0466147 4.64962669 34.7176147 4.64962669"></polygon>
            <polygon id="path50_5_" fill="#E24329" points="10.5316147 19.4116267 10.5316147 19.4116267 14.4126147 7.47362669 6.6566147 7.47362669"></polygon>
            <path d="M1.2226147,7.47362669 L1.2226147,7.47362669 L0.0406147019,11.1006267 C-0.0691160905,11.4319854 0.0486584914,11.7962367 0.331614702,12.0006267 L10.5316147,19.4136267 L1.2226147,7.47362669 Z" id="path66_12_" fill="#FCA326"></path>
            <path d="M1.2206147,7.47362669 L6.6566147,7.47362669 L4.3176147,0.284626693 C4.26671326,0.115651295 4.11109031,0 3.9346147,0 C3.75813909,0 3.60251614,0.115651295 3.5516147,0.284626693 L1.2206147,7.47362669 L1.2206147,7.47362669 Z" id="path74_5_" fill="#E24329"></path>
            <path d="M19.8486147,7.47362669 L19.8486147,7.47362669 L21.0266147,11.1006267 C21.1363455,11.4319854 21.0185709,11.7962367 20.7356147,12.0006267 L10.5356147,19.4136267 L19.8526147,7.47562669 L19.8486147,7.47362669 Z" id="path82_12_" fill="#FCA326"></path>
            <path d="M19.8486147,7.47362669 L14.4126147,7.47362669 L16.7476147,0.284626693 C16.7985161,0.115651295 16.9541391,0 17.1306147,0 C17.3070903,0 17.4627133,0.115651295 17.5136147,0.284626693 L19.8486147,7.47362669 L19.8486147,7.47362669 Z" id="path86_5_" fill="#E24329"></path>
            <polygon id="Trazado_393" fill="#FC6D26" points="10.5316147 19.4116267 14.4126147 7.47362669 19.8486147 7.47362669"></polygon>
            <polygon id="Trazado_394" fill="#FC6D26" points="10.5316147 19.4116267 1.2206147 7.47362669 6.6566147 7.47362669"></polygon>
        </g>
    </g>
</svg>