<?xml version="1.0" encoding="UTF-8"?>
<svg width="17px" height="19px" viewBox="0 0 17 19" version="1.1" xmlns="http://www.w3.org/2000/svg" xmlns:xlink="http://www.w3.org/1999/xlink">
    <title>preferences_icons_SMTP</title>
    <g id="Page-1" stroke="none" stroke-width="1" fill="none" fill-rule="evenodd">
        <g id="preferences_icons_SMTP" transform="translate(0.300000, 0.000000)" fill="#63758D" fill-rule="nonzero">
            <path d="M15.5,6.65 C15.5,6.55 15.4,6.55 15.4,6.45 L13.4,4.65 L13.4,3.65 C13.4,2.85 12.8,2.25 12,2.25 L10.6,2.25 L8.2,0.15 C8,-0.05 7.7,-0.05 7.5,0.15 L5.2,2.15 L3.9,2.15 C3.5,2.15 3.2,2.25 2.9,2.55 C2.6,2.85 2.5,3.15 2.5,3.55 L2.5,4.65 L0.5,6.45 C0.4,6.45 0.3,6.55 0.3,6.65 C0.1,6.85 0,7.15 0,7.45 L0,16.75 C0,17.45 0.6,18.05 1.3,18.05 L14.5,18.05 C15.2,18.05 15.8,17.45 15.8,16.75 L15.8,7.35 C15.8,7.15 15.7,6.85 15.5,6.65 Z M1.5,6.85 L2.4,6.05 L2.4,7.75 L1.5,6.85 Z M6.7,2.15 L7.9,1.15 L9.1,2.15 L6.7,2.15 Z M13.4,7.65 L13.4,6.05 L14.3,6.85 L13.4,7.65 Z M1.4,15.95 C1.2,16.15 1.2,16.45 1.4,16.65 C1.6,16.85 1.9,16.85 2.1,16.65 L6.5,12.65 L7.4,13.55 C7.6,13.75 7.9,13.75 8.1,13.55 L9,12.65 L13.5,16.65 C13.6,16.75 13.7,16.75 13.9,16.75 C14,16.75 14.2,16.65 14.3,16.55 C14.5,16.35 14.5,16.05 14.3,15.85 L9.9,11.95 L14.7,7.65 L14.7,16.55 C14.7,16.65 14.6,16.85 14.4,16.85 L1.3,16.85 C1.2,16.85 1,16.75 1,16.55 L1,7.75 L5.7,12.05 L1.4,15.95 Z M12.4,8.55 L7.9,12.45 L3.5,8.55 L3.5,3.55 C3.5,3.45 3.5,3.35 3.6,3.25 C3.7,3.15 3.8,3.15 3.9,3.15 C3.9,3.15 3.9,3.15 4,3.15 L12.1,3.15 C12.3,3.15 12.5,3.35 12.5,3.55 L12.5,8.55 L12.4,8.55 Z" id="Shape"></path>
            <path d="M10.8,5.35 C10.8,5.15 10.6,4.95 10.4,4.95 L5.4,4.95 C5.2,4.95 5,5.15 5,5.35 C5,5.55 5.2,5.85 5.4,5.85 L10.3,5.85 C10.6,5.85 10.8,5.65 10.8,5.35 C10.8,5.35 10.8,5.35 10.8,5.35 Z" id="Path"></path>
            <path d="M10.1,7.15 C10.1,6.95 9.9,6.75 9.7,6.75 L6.1,6.75 C5.9,6.75 5.7,6.95 5.7,7.15 C5.7,7.35 5.9,7.55 6.1,7.55 L9.7,7.55 C9.9,7.55 10.1,7.35 10.1,7.15 C10.1,7.15 10.1,7.15 10.1,7.15 Z" id="Path"></path>
        </g>
    </g>
</svg>