<svg width="18" height="24" xmlns="http://www.w3.org/2000/svg"><g fill="none" fill-rule="evenodd"><path d="M-875-1027H493V588H-875z"/><g fill-rule="nonzero"><path d="M12.21 0H.735C.416 0 .157.27.157.793V22.66c0 .143.26.412.579.412h15.843c.32 0 .578-.27.578-.412V5.347c0-.287-.037-.38-.101-.447l-4.6-4.794A.342.342 0 0 0 12.208 0Z" fill="#E9E9E0"/><path fill="#D9D7CA" d="M12.907 0v4.857h4.25z"/><path d="M5.29 13.964a.683.683 0 0 1-.408-.135c-.438-.323-.497-.682-.469-.927.077-.674.924-1.379 2.519-2.097a27.458 27.458 0 0 0 1.594-4.447c-.42-.899-.828-2.065-.53-2.748.104-.24.234-.424.477-.503.096-.032.338-.071.427-.071.212 0 .399.268.53.434.125.155.407.485-.156 2.814.567 1.152 1.371 2.325 2.141 3.128a8.324 8.324 0 0 1 1.413-.148c.66 0 1.059.151 1.222.462.134.258.08.558-.164.894-.235.322-.558.493-.935.493-.511 0-1.107-.318-1.772-.946a20.416 20.416 0 0 0-3.715 1.168c-.352.734-.69 1.325-1.003 1.758-.432.594-.804.871-1.172.871Zm.939-1.821c-.844.424-1.188.773-1.213.97-.004.032-.015.118.17.244.059-.016.402-.157 1.043-1.214ZM12.3 9.777c.331.362.412.544.629.544.095 0 .366-.005.492-.254.06-.12.084-.198.093-.24-.05-.037-.116-.113-.477-.113-.206 0-.464.014-.737.063ZM8.692 7.286a26.048 26.048 0 0 1-1.25 3.035c.978-.325 2.04-.61 3.037-.81a13.892 13.892 0 0 1-1.787-2.225Zm.292-3.643c-.054.012-.74.663.054 1.214.528-.798-.03-1.22-.054-1.214ZM16.579 23.071H.736c-.32 0-.579-.28-.579-.627v-6.658h17v6.658c0 .347-.259.627-.578.627Z" fill="#CC4B4C"/><g fill="#FFF"><path d="M4.422 21.857H3.8v-4.25h1.098c.162 0 .322.029.481.087.159.057.301.144.427.259.126.115.228.255.306.418.078.163.117.347.117.55 0 .216-.033.411-.099.586a1.234 1.234 0 0 1-.274.442c-.118.118-.26.21-.425.276a1.483 1.483 0 0 1-.549.098h-.46v1.534Zm-.015-3.643v1.822h.574a.566.566 0 0 0 .433-.2.783.783 0 0 0 .15-.296 1.659 1.659 0 0 0 .032-.73.824.824 0 0 0-.107-.28.674.674 0 0 0-.227-.225.726.726 0 0 0-.386-.09h-.469ZM10.479 19.614c0 .35-.034.649-.1.897s-.15.455-.253.623c-.102.167-.216.299-.344.395-.128.096-.25.168-.37.216a1.385 1.385 0 0 1-.326.093c-.099.012-.172.02-.22.02H7.443v-4.25h1.132c.317 0 .595.056.834.17.24.112.44.264.598.452.158.188.276.403.354.643.078.24.118.487.118.741ZM8.67 21.25c.425 0 .73-.141.919-.424.188-.283.281-.693.281-1.23 0-.166-.019-.332-.057-.495a1.075 1.075 0 0 0-.222-.443 1.171 1.171 0 0 0-.446-.321c-.188-.082-.431-.123-.73-.123H8.05v3.036h.621ZM12.336 18.132v1.338h1.622v.472h-1.622v1.915h-.643v-4.25h2.428v.525z"/></g></g></g></svg>