<svg xmlns="http://www.w3.org/2000/svg" id="servicenow-1" width="91.081" height="13.5" viewBox="0 0 91.081 13.5">
    <defs>
        <style>
            .cls-1{fill:#293f41;fill-rule:evenodd}
        </style>
    </defs>
    <g id="Grupo_1928">
        <path id="Trazado_304" d="M23.049 4.676a4.107 4.107 0 0 0-2.537.9v-.847h-2.326v9.039h2.432V8.006A2.785 2.785 0 0 1 22.785 6.9a2.561 2.561 0 0 1 .952.159v-2.33a2.793 2.793 0 0 0-.687-.053M2.01 11.02a3.674 3.674 0 0 0 2.485.9c.634 0 1.163-.317 1.163-.74 0-1.374-4.335-.9-4.335-3.806 0-1.744 1.692-2.8 3.436-2.8a5.694 5.694 0 0 1 3.066.9l-1.11 1.739a3.167 3.167 0 0 0-1.745-.634c-.687 0-1.216.264-1.216.74 0 1.163 4.335.687 4.335 3.859 0 1.744-1.692 2.8-3.595 2.8A6.014 6.014 0 0 1 .9 12.764zm15.171-1.85a4.333 4.333 0 0 0-4.229-4.6 4.45 4.45 0 0 0-4.388 4.7 4.5 4.5 0 0 0 4.7 4.7 4.926 4.926 0 0 0 3.7-1.639L15.6 10.967a3.2 3.2 0 0 1-2.273 1.057 2.378 2.378 0 0 1-2.432-2.167h6.238c0-.211.053-.423.053-.687M11 8.112a1.939 1.939 0 0 1 1.9-1.586 1.831 1.831 0 0 1 1.8 1.586zm18.5 2.167l2.485-5.551h2.485l-4.123 9.039h-1.694l-4.124-9.038h2.537zM36.529.5a1.58 1.58 0 0 1 1.586 1.533 1.587 1.587 0 0 1-3.172 0A1.546 1.546 0 0 1 36.529.5m-1.216 4.229h2.432v9.039h-2.432zm12.37 7.189a4.817 4.817 0 1 1-4.018-7.4 4.957 4.957 0 0 1 3.806 1.8l-1.691 1.53a2.577 2.577 0 0 0-2.062-1.057 2.437 2.437 0 0 0-2.432 2.485 2.387 2.387 0 0 0 2.485 2.485 2.607 2.607 0 0 0 2.167-1.216zm8.775.423a4.845 4.845 0 0 1-3.7 1.639 4.5 4.5 0 0 1-4.7-4.7 4.42 4.42 0 0 1 4.388-4.7 4.364 4.364 0 0 1 4.229 4.6 2.793 2.793 0 0 1-.053.687h-6.243a2.378 2.378 0 0 0 2.432 2.167 3.2 3.2 0 0 0 2.273-1.057zm-2.273-4.229a1.79 1.79 0 0 0-1.8-1.586 1.9 1.9 0 0 0-1.9 1.586zm3.436 5.656V4.729h2.326v.74a3.813 3.813 0 0 1 2.537-.9A4.019 4.019 0 0 1 65.6 6.051a4.628 4.628 0 0 1 .952 3.172v4.6h-2.429V9.011a2.211 2.211 0 0 0-.529-1.692 1.915 1.915 0 0 0-1.374-.529 2.785 2.785 0 0 0-2.167 1.11v5.868z" class="cls-1" transform="translate(-.9 -.5)"/>
        <path id="Trazado_305" fill="#82b6a1" fill-rule="evenodd" d="M132.086 8.2a5.291 5.291 0 0 0-5.286 5.233 5.514 5.514 0 0 0 1.639 3.912 1.045 1.045 0 0 0 1.374.053 3.555 3.555 0 0 1 2.273-.74 3.662 3.662 0 0 1 2.273.74 1.048 1.048 0 0 0 1.374-.106 5.272 5.272 0 0 0-3.647-9.092m-.053 7.929a2.585 2.585 0 0 1-2.643-2.643 2.554 2.554 0 0 1 2.643-2.643 2.643 2.643 0 1 1 0 5.286" transform="translate(-60.247 -4.13)"/>
        <path id="Trazado_306" d="M150.892 17.539h-1.8L145.5 8.5h2.432l1.956 5.18 1.956-5.18h2.009l1.9 5.18 1.956-5.18h2.432l-3.595 9.039h-1.8l-1.9-5.128z" class="cls-1" transform="translate(-69.062 -4.271)"/>
    </g>
    <path id="Trazado_307" fill="#293f41" d="M169.946 23.5v.159h-.317v.952h-.211v-.952h-.318V23.5zm.74.687l.423-.687h.159v1.11h-.211v-.634l-.317.476h-.159l-.264-.476v.634h-.217V23.5h.159z" transform="translate(-80.186 -11.342)"/>
</svg>
