<svg width="55" height="55" xmlns="http://www.w3.org/2000/svg">
    <g fill="none" fill-rule="evenodd">
        <!-- <circle fill="#0082ED" cx="27.5" cy="27.5" r="27.5"/> -->
        <path d="M38.021 17c1.082 0 1.979.91 1.979 2.01v12.296c0 1.1-.897 2.011-1.979 2.011H36.39v3.888c0 .3-.166.575-.43.71a.77.77 0 0 1-.817-.071L29.1 33.317H16.979c-1.082 0-1.979-.91-1.979-2.01V19.01c0-1.1.897-2.011 1.979-2.011zm-4.683 9.571H21.666a.789.789 0 0 0-.78.795c0 .439.349.795.78.795h11.672c.432 0 .781-.356.781-.795a.789.789 0 0 0-.78-.795zm-11.751-3.833a.791.791 0 0 0-.723.833.788.788 0 0 0 .802.755h7.763a.779.779 0 0 0 .692-.392.806.806 0 0 0 0-.804.779.779 0 0 0-.692-.392h-7.763a.768.768 0 0 0-.08 0z" fill="#FFF" fill-rule="nonzero"/>
    </g>
</svg>
